<svg width="201" height="48" viewBox="0 0 201 48" fill="none" xmlns="http://www.w3.org/2000/svg">
<path d="M4.12305 7.8515H11.683L22.123 37.0629L32.8716 7.8515H40.1745V44.5715H34.4659V17.8801L24.3859 44.5715H19.4488L9.72876 17.9315V44.5715H4.12305V7.8515Z" fill="#FAFAFA"/>
<path d="M63.9622 45.4972C61.3222 45.4972 58.9393 45.0686 56.8136 44.2115C54.7222 43.3201 52.9222 42.0515 51.4136 40.4058C49.9051 38.7601 48.7393 36.7544 47.9165 34.3886C47.1279 31.9886 46.7336 29.2801 46.7336 26.2629C46.7336 23.2458 47.1451 20.5372 47.9679 18.1372C48.7908 15.7372 49.9565 13.7144 51.4651 12.0686C52.9736 10.3886 54.7908 9.12007 56.9165 8.26293C59.0422 7.3715 61.3908 6.92578 63.9622 6.92578C66.5679 6.92578 68.9336 7.3715 71.0593 8.26293C73.1851 9.12007 74.9851 10.3715 76.4594 12.0172C77.9336 13.6629 79.0651 15.6858 79.8536 18.0858C80.6765 20.4515 81.0879 23.1429 81.0879 26.1601C81.0879 29.2115 80.6936 31.9372 79.9051 34.3372C79.1165 36.7029 77.9851 38.7258 76.5108 40.4058C75.0365 42.0515 73.2365 43.3201 71.1108 44.2115C69.0193 45.0686 66.6365 45.4972 63.9622 45.4972ZM63.9108 40.1486C67.4422 40.1486 70.1165 38.9144 71.9336 36.4458C73.7508 33.9429 74.6594 30.5315 74.6594 26.2115C74.6594 24.0515 74.4193 22.1144 73.9393 20.4001C73.4936 18.6858 72.8251 17.2286 71.9336 16.0286C71.0422 14.8286 69.9279 13.9029 68.5908 13.2515C67.2536 12.6001 65.6936 12.2744 63.9108 12.2744C62.1279 12.2744 60.5679 12.6001 59.2308 13.2515C57.8936 13.9029 56.7622 14.8286 55.8365 16.0286C54.9451 17.2286 54.2765 18.6858 53.8308 20.4001C53.3851 22.1144 53.1622 24.0515 53.1622 26.2115C53.1622 30.5315 54.0536 33.9429 55.8365 36.4458C57.6536 38.9144 60.3451 40.1486 63.9108 40.1486Z" fill="#FAFAFA"/>
<path d="M96.2811 7.8515H102.452L116.441 44.5715H109.807L106.361 35.2115H92.1153L88.721 44.5715H82.2925L96.2811 7.8515ZM104.664 30.0172L99.2125 14.8972L93.8125 30.0172H104.664Z" fill="#FAFAFA"/>
<path d="M120.892 7.8515H126.652L143.521 34.3886V7.8515H149.589V44.5715H143.829L126.909 18.1372V44.5715H120.892V7.8515Z" fill="#FAFAFA"/>
<path d="M157.404 7.8515H163.627V24.0001L179.004 7.8515H185.896L173.244 21.6344L187.284 44.5715H180.239L168.873 25.6458L163.627 30.9429V44.5715H157.404V7.8515Z" fill="#FAFAFA"/>
<path d="M197.603 37.4229V44.5715H191.38V37.4229H197.603Z" fill="#FAFAFA"/>
</svg>
