<svg width="127" height="40" viewBox="0 0 127 40" fill="none" xmlns="http://www.w3.org/2000/svg">
<path d="M2.43201 11.152H7.13601L13.632 29.328L20.32 11.152H24.864V34H21.312V17.392L15.04 34H11.968L5.92001 17.424V34H2.43201V11.152Z" fill="#2F3131"/>
<path d="M39.9853 34.576C38.3426 34.576 36.8599 34.3093 35.5373 33.776C34.2359 33.2213 33.1159 32.432 32.1773 31.408C31.2386 30.384 30.5133 29.136 30.0013 27.664C29.5106 26.1707 29.2653 24.4853 29.2653 22.608C29.2653 20.7307 29.5213 19.0453 30.0333 17.552C30.5453 16.0587 31.2706 14.8 32.2093 13.776C33.1479 12.7307 34.2786 11.9413 35.6013 11.408C36.9239 10.8533 38.3853 10.576 39.9853 10.576C41.6066 10.576 43.0786 10.8533 44.4013 11.408C45.7239 11.9413 46.8439 12.72 47.7613 13.744C48.6786 14.768 49.3826 16.0267 49.8733 17.52C50.3853 18.992 50.6413 20.6667 50.6413 22.544C50.6413 24.4427 50.3959 26.1387 49.9053 27.632C49.4146 29.104 48.7106 30.3627 47.7933 31.408C46.8759 32.432 45.7559 33.2213 44.4333 33.776C43.1319 34.3093 41.6493 34.576 39.9853 34.576ZM39.9533 31.248C42.1506 31.248 43.8146 30.48 44.9453 28.944C46.0759 27.3867 46.6413 25.264 46.6413 22.576C46.6413 21.232 46.4919 20.0267 46.1933 18.96C45.9159 17.8933 45.4999 16.9867 44.9453 16.24C44.3906 15.4933 43.6973 14.9173 42.8653 14.512C42.0333 14.1067 41.0626 13.904 39.9533 13.904C38.8439 13.904 37.8733 14.1067 37.0413 14.512C36.2093 14.9173 35.5053 15.4933 34.9293 16.24C34.3746 16.9867 33.9586 17.8933 33.6813 18.96C33.4039 20.0267 33.2653 21.232 33.2653 22.576C33.2653 25.264 33.8199 27.3867 34.9293 28.944C36.0599 30.48 37.7346 31.248 39.9533 31.248Z" fill="#2F3131"/>
<path d="M60.4148 11.152H64.2548L72.9588 34H68.8308L66.6868 28.176H57.8228L55.7108 34H51.7108L60.4148 11.152ZM65.6308 24.944L62.2388 15.536L58.8788 24.944H65.6308Z" fill="#2F3131"/>
<path d="M76.0483 11.152H79.6323L90.1283 27.664V11.152H93.9043V34H90.3203L79.7923 17.552V34H76.0483V11.152Z" fill="#2F3131"/>
<path d="M99.087 11.152H102.959V21.2L112.527 11.152H116.815L108.943 19.728L117.679 34H113.295L106.223 22.224L102.959 25.52V34H99.087V11.152Z" fill="#2F3131"/>
<path d="M124.42 29.552V34H120.548V29.552H124.42Z" fill="#2F3131"/>
</svg>
